<?xml version="1.0" encoding="UTF-8"?>
<svg fill="currentColor" fill-rule="evenodd" xmlns="http://www.w3.org/2000/svg" version="1.1" viewBox="-34 -34 68 68">
<path d="M0.00 0.00 L1.44 0.86 L2.89 1.43 L4.33 1.90 L5.78 2.30 L7.22 2.62 L8.67 2.87 L10.11 3.05 L11.56 3.16 L13.00 3.20 L14.44 3.16 L15.89 3.05 L17.33 2.87 L18.78 2.62 L20.22 2.30 L21.67 1.90 L23.11 1.43 L24.56 0.86 L26.00 0.00 L26.00 -0.00 L24.56 -0.86 L23.11 -1.43 L21.67 -1.90 L20.22 -2.30 L18.78 -2.62 L17.33 -2.87 L15.89 -3.05 L14.44 -3.16 L13.00 -3.20 L11.56 -3.16 L10.11 -3.05 L8.67 -2.87 L7.22 -2.62 L5.78 -2.30 L4.33 -1.90 L2.89 -1.43 L1.44 -0.86 L0.00 -0.00 Z M3.64 0.49 L4.74 0.66 L5.84 0.81 L6.93 0.93 L8.03 1.04 L9.13 1.12 L10.23 1.18 L11.32 1.23 L12.42 1.25 L13.52 1.25 L14.62 1.23 L15.72 1.19 L16.81 1.12 L17.91 1.04 L19.01 0.94 L20.11 0.81 L21.20 0.67 L22.30 0.50 L23.40 0.31 L23.40 -1.01 L22.30 -1.20 L21.20 -1.37 L20.11 -1.51 L19.01 -1.64 L17.91 -1.74 L16.81 -1.82 L15.72 -1.89 L14.62 -1.93 L13.52 -1.95 L12.42 -1.95 L11.32 -1.93 L10.23 -1.88 L9.13 -1.82 L8.03 -1.74 L6.93 -1.63 L5.84 -1.51 L4.74 -1.36 L3.64 -1.19 Z" transform="rotate(0.0) translate(7.0 0)"/>
<path d="M0.00 0.00 L1.44 0.86 L2.89 1.43 L4.33 1.90 L5.78 2.30 L7.22 2.62 L8.67 2.87 L10.11 3.05 L11.56 3.16 L13.00 3.20 L14.44 3.16 L15.89 3.05 L17.33 2.87 L18.78 2.62 L20.22 2.30 L21.67 1.90 L23.11 1.43 L24.56 0.86 L26.00 0.00 L26.00 -0.00 L24.56 -0.86 L23.11 -1.43 L21.67 -1.90 L20.22 -2.30 L18.78 -2.62 L17.33 -2.87 L15.89 -3.05 L14.44 -3.16 L13.00 -3.20 L11.56 -3.16 L10.11 -3.05 L8.67 -2.87 L7.22 -2.62 L5.78 -2.30 L4.33 -1.90 L2.89 -1.43 L1.44 -0.86 L0.00 -0.00 Z M3.64 0.49 L4.74 0.66 L5.84 0.81 L6.93 0.93 L8.03 1.04 L9.13 1.12 L10.23 1.18 L11.32 1.23 L12.42 1.25 L13.52 1.25 L14.62 1.23 L15.72 1.19 L16.81 1.12 L17.91 1.04 L19.01 0.94 L20.11 0.81 L21.20 0.67 L22.30 0.50 L23.40 0.31 L23.40 -1.01 L22.30 -1.20 L21.20 -1.37 L20.11 -1.51 L19.01 -1.64 L17.91 -1.74 L16.81 -1.82 L15.72 -1.89 L14.62 -1.93 L13.52 -1.95 L12.42 -1.95 L11.32 -1.93 L10.23 -1.88 L9.13 -1.82 L8.03 -1.74 L6.93 -1.63 L5.84 -1.51 L4.74 -1.36 L3.64 -1.19 Z" transform="rotate(30.0) translate(7.0 0)"/>
<path d="M0.00 0.00 L1.44 0.86 L2.89 1.43 L4.33 1.90 L5.78 2.30 L7.22 2.62 L8.67 2.87 L10.11 3.05 L11.56 3.16 L13.00 3.20 L14.44 3.16 L15.89 3.05 L17.33 2.87 L18.78 2.62 L20.22 2.30 L21.67 1.90 L23.11 1.43 L24.56 0.86 L26.00 0.00 L26.00 -0.00 L24.56 -0.86 L23.11 -1.43 L21.67 -1.90 L20.22 -2.30 L18.78 -2.62 L17.33 -2.87 L15.89 -3.05 L14.44 -3.16 L13.00 -3.20 L11.56 -3.16 L10.11 -3.05 L8.67 -2.87 L7.22 -2.62 L5.78 -2.30 L4.33 -1.90 L2.89 -1.43 L1.44 -0.86 L0.00 -0.00 Z M3.64 0.49 L4.74 0.66 L5.84 0.81 L6.93 0.93 L8.03 1.04 L9.13 1.12 L10.23 1.18 L11.32 1.23 L12.42 1.25 L13.52 1.25 L14.62 1.23 L15.72 1.19 L16.81 1.12 L17.91 1.04 L19.01 0.94 L20.11 0.81 L21.20 0.67 L22.30 0.50 L23.40 0.31 L23.40 -1.01 L22.30 -1.20 L21.20 -1.37 L20.11 -1.51 L19.01 -1.64 L17.91 -1.74 L16.81 -1.82 L15.72 -1.89 L14.62 -1.93 L13.52 -1.95 L12.42 -1.95 L11.32 -1.93 L10.23 -1.88 L9.13 -1.82 L8.03 -1.74 L6.93 -1.63 L5.84 -1.51 L4.74 -1.36 L3.64 -1.19 Z" transform="rotate(60.0) translate(7.0 0)"/>
<path d="M0.00 0.00 L1.44 0.86 L2.89 1.43 L4.33 1.90 L5.78 2.30 L7.22 2.62 L8.67 2.87 L10.11 3.05 L11.56 3.16 L13.00 3.20 L14.44 3.16 L15.89 3.05 L17.33 2.87 L18.78 2.62 L20.22 2.30 L21.67 1.90 L23.11 1.43 L24.56 0.86 L26.00 0.00 L26.00 -0.00 L24.56 -0.86 L23.11 -1.43 L21.67 -1.90 L20.22 -2.30 L18.78 -2.62 L17.33 -2.87 L15.89 -3.05 L14.44 -3.16 L13.00 -3.20 L11.56 -3.16 L10.11 -3.05 L8.67 -2.87 L7.22 -2.62 L5.78 -2.30 L4.33 -1.90 L2.89 -1.43 L1.44 -0.86 L0.00 -0.00 Z M3.64 0.49 L4.74 0.66 L5.84 0.81 L6.93 0.93 L8.03 1.04 L9.13 1.12 L10.23 1.18 L11.32 1.23 L12.42 1.25 L13.52 1.25 L14.62 1.23 L15.72 1.19 L16.81 1.12 L17.91 1.04 L19.01 0.94 L20.11 0.81 L21.20 0.67 L22.30 0.50 L23.40 0.31 L23.40 -1.01 L22.30 -1.20 L21.20 -1.37 L20.11 -1.51 L19.01 -1.64 L17.91 -1.74 L16.81 -1.82 L15.72 -1.89 L14.62 -1.93 L13.52 -1.95 L12.42 -1.95 L11.32 -1.93 L10.23 -1.88 L9.13 -1.82 L8.03 -1.74 L6.93 -1.63 L5.84 -1.51 L4.74 -1.36 L3.64 -1.19 Z" transform="rotate(90.0) translate(7.0 0)"/>
<path d="M0.00 0.00 L1.44 0.86 L2.89 1.43 L4.33 1.90 L5.78 2.30 L7.22 2.62 L8.67 2.87 L10.11 3.05 L11.56 3.16 L13.00 3.20 L14.44 3.16 L15.89 3.05 L17.33 2.87 L18.78 2.62 L20.22 2.30 L21.67 1.90 L23.11 1.43 L24.56 0.86 L26.00 0.00 L26.00 -0.00 L24.56 -0.86 L23.11 -1.43 L21.67 -1.90 L20.22 -2.30 L18.78 -2.62 L17.33 -2.87 L15.89 -3.05 L14.44 -3.16 L13.00 -3.20 L11.56 -3.16 L10.11 -3.05 L8.67 -2.87 L7.22 -2.62 L5.78 -2.30 L4.33 -1.90 L2.89 -1.43 L1.44 -0.86 L0.00 -0.00 Z M3.64 0.49 L4.74 0.66 L5.84 0.81 L6.93 0.93 L8.03 1.04 L9.13 1.12 L10.23 1.18 L11.32 1.23 L12.42 1.25 L13.52 1.25 L14.62 1.23 L15.72 1.19 L16.81 1.12 L17.91 1.04 L19.01 0.94 L20.11 0.81 L21.20 0.67 L22.30 0.50 L23.40 0.31 L23.40 -1.01 L22.30 -1.20 L21.20 -1.37 L20.11 -1.51 L19.01 -1.64 L17.91 -1.74 L16.81 -1.82 L15.72 -1.89 L14.62 -1.93 L13.52 -1.95 L12.42 -1.95 L11.32 -1.93 L10.23 -1.88 L9.13 -1.82 L8.03 -1.74 L6.93 -1.63 L5.84 -1.51 L4.74 -1.36 L3.64 -1.19 Z" transform="rotate(120.0) translate(7.0 0)"/>
<path d="M0.00 0.00 L1.44 0.86 L2.89 1.43 L4.33 1.90 L5.78 2.30 L7.22 2.62 L8.67 2.87 L10.11 3.05 L11.56 3.16 L13.00 3.20 L14.44 3.16 L15.89 3.05 L17.33 2.87 L18.78 2.62 L20.22 2.30 L21.67 1.90 L23.11 1.43 L24.56 0.86 L26.00 0.00 L26.00 -0.00 L24.56 -0.86 L23.11 -1.43 L21.67 -1.90 L20.22 -2.30 L18.78 -2.62 L17.33 -2.87 L15.89 -3.05 L14.44 -3.16 L13.00 -3.20 L11.56 -3.16 L10.11 -3.05 L8.67 -2.87 L7.22 -2.62 L5.78 -2.30 L4.33 -1.90 L2.89 -1.43 L1.44 -0.86 L0.00 -0.00 Z M3.64 0.49 L4.74 0.66 L5.84 0.81 L6.93 0.93 L8.03 1.04 L9.13 1.12 L10.23 1.18 L11.32 1.23 L12.42 1.25 L13.52 1.25 L14.62 1.23 L15.72 1.19 L16.81 1.12 L17.91 1.04 L19.01 0.94 L20.11 0.81 L21.20 0.67 L22.30 0.50 L23.40 0.31 L23.40 -1.01 L22.30 -1.20 L21.20 -1.37 L20.11 -1.51 L19.01 -1.64 L17.91 -1.74 L16.81 -1.82 L15.72 -1.89 L14.62 -1.93 L13.52 -1.95 L12.42 -1.95 L11.32 -1.93 L10.23 -1.88 L9.13 -1.82 L8.03 -1.74 L6.93 -1.63 L5.84 -1.51 L4.74 -1.36 L3.64 -1.19 Z" transform="rotate(150.0) translate(7.0 0)"/>
<path d="M0.00 0.00 L1.44 0.86 L2.89 1.43 L4.33 1.90 L5.78 2.30 L7.22 2.62 L8.67 2.87 L10.11 3.05 L11.56 3.16 L13.00 3.20 L14.44 3.16 L15.89 3.05 L17.33 2.87 L18.78 2.62 L20.22 2.30 L21.67 1.90 L23.11 1.43 L24.56 0.86 L26.00 0.00 L26.00 -0.00 L24.56 -0.86 L23.11 -1.43 L21.67 -1.90 L20.22 -2.30 L18.78 -2.62 L17.33 -2.87 L15.89 -3.05 L14.44 -3.16 L13.00 -3.20 L11.56 -3.16 L10.11 -3.05 L8.67 -2.87 L7.22 -2.62 L5.78 -2.30 L4.33 -1.90 L2.89 -1.43 L1.44 -0.86 L0.00 -0.00 Z M3.64 0.49 L4.74 0.66 L5.84 0.81 L6.93 0.93 L8.03 1.04 L9.13 1.12 L10.23 1.18 L11.32 1.23 L12.42 1.25 L13.52 1.25 L14.62 1.23 L15.72 1.19 L16.81 1.12 L17.91 1.04 L19.01 0.94 L20.11 0.81 L21.20 0.67 L22.30 0.50 L23.40 0.31 L23.40 -1.01 L22.30 -1.20 L21.20 -1.37 L20.11 -1.51 L19.01 -1.64 L17.91 -1.74 L16.81 -1.82 L15.72 -1.89 L14.62 -1.93 L13.52 -1.95 L12.42 -1.95 L11.32 -1.93 L10.23 -1.88 L9.13 -1.82 L8.03 -1.74 L6.93 -1.63 L5.84 -1.51 L4.74 -1.36 L3.64 -1.19 Z" transform="rotate(180.0) translate(7.0 0)"/>
<path d="M0.00 0.00 L1.44 0.86 L2.89 1.43 L4.33 1.90 L5.78 2.30 L7.22 2.62 L8.67 2.87 L10.11 3.05 L11.56 3.16 L13.00 3.20 L14.44 3.16 L15.89 3.05 L17.33 2.87 L18.78 2.62 L20.22 2.30 L21.67 1.90 L23.11 1.43 L24.56 0.86 L26.00 0.00 L26.00 -0.00 L24.56 -0.86 L23.11 -1.43 L21.67 -1.90 L20.22 -2.30 L18.78 -2.62 L17.33 -2.87 L15.89 -3.05 L14.44 -3.16 L13.00 -3.20 L11.56 -3.16 L10.11 -3.05 L8.67 -2.87 L7.22 -2.62 L5.78 -2.30 L4.33 -1.90 L2.89 -1.43 L1.44 -0.86 L0.00 -0.00 Z M3.64 0.49 L4.74 0.66 L5.84 0.81 L6.93 0.93 L8.03 1.04 L9.13 1.12 L10.23 1.18 L11.32 1.23 L12.42 1.25 L13.52 1.25 L14.62 1.23 L15.72 1.19 L16.81 1.12 L17.91 1.04 L19.01 0.94 L20.11 0.81 L21.20 0.67 L22.30 0.50 L23.40 0.31 L23.40 -1.01 L22.30 -1.20 L21.20 -1.37 L20.11 -1.51 L19.01 -1.64 L17.91 -1.74 L16.81 -1.82 L15.72 -1.89 L14.62 -1.93 L13.52 -1.95 L12.42 -1.95 L11.32 -1.93 L10.23 -1.88 L9.13 -1.82 L8.03 -1.74 L6.93 -1.63 L5.84 -1.51 L4.74 -1.36 L3.64 -1.19 Z" transform="rotate(210.0) translate(7.0 0)"/>
<path d="M0.00 0.00 L1.44 0.86 L2.89 1.43 L4.33 1.90 L5.78 2.30 L7.22 2.62 L8.67 2.87 L10.11 3.05 L11.56 3.16 L13.00 3.20 L14.44 3.16 L15.89 3.05 L17.33 2.87 L18.78 2.62 L20.22 2.30 L21.67 1.90 L23.11 1.43 L24.56 0.86 L26.00 0.00 L26.00 -0.00 L24.56 -0.86 L23.11 -1.43 L21.67 -1.90 L20.22 -2.30 L18.78 -2.62 L17.33 -2.87 L15.89 -3.05 L14.44 -3.16 L13.00 -3.20 L11.56 -3.16 L10.11 -3.05 L8.67 -2.87 L7.22 -2.62 L5.78 -2.30 L4.33 -1.90 L2.89 -1.43 L1.44 -0.86 L0.00 -0.00 Z M3.64 0.49 L4.74 0.66 L5.84 0.81 L6.93 0.93 L8.03 1.04 L9.13 1.12 L10.23 1.18 L11.32 1.23 L12.42 1.25 L13.52 1.25 L14.62 1.23 L15.72 1.19 L16.81 1.12 L17.91 1.04 L19.01 0.94 L20.11 0.81 L21.20 0.67 L22.30 0.50 L23.40 0.31 L23.40 -1.01 L22.30 -1.20 L21.20 -1.37 L20.11 -1.51 L19.01 -1.64 L17.91 -1.74 L16.81 -1.82 L15.72 -1.89 L14.62 -1.93 L13.52 -1.95 L12.42 -1.95 L11.32 -1.93 L10.23 -1.88 L9.13 -1.82 L8.03 -1.74 L6.93 -1.63 L5.84 -1.51 L4.74 -1.36 L3.64 -1.19 Z" transform="rotate(240.0) translate(7.0 0)"/>
<path d="M0.00 0.00 L1.44 0.86 L2.89 1.43 L4.33 1.90 L5.78 2.30 L7.22 2.62 L8.67 2.87 L10.11 3.05 L11.56 3.16 L13.00 3.20 L14.44 3.16 L15.89 3.05 L17.33 2.87 L18.78 2.62 L20.22 2.30 L21.67 1.90 L23.11 1.43 L24.56 0.86 L26.00 0.00 L26.00 -0.00 L24.56 -0.86 L23.11 -1.43 L21.67 -1.90 L20.22 -2.30 L18.78 -2.62 L17.33 -2.87 L15.89 -3.05 L14.44 -3.16 L13.00 -3.20 L11.56 -3.16 L10.11 -3.05 L8.67 -2.87 L7.22 -2.62 L5.78 -2.30 L4.33 -1.90 L2.89 -1.43 L1.44 -0.86 L0.00 -0.00 Z M3.64 0.49 L4.74 0.66 L5.84 0.81 L6.93 0.93 L8.03 1.04 L9.13 1.12 L10.23 1.18 L11.32 1.23 L12.42 1.25 L13.52 1.25 L14.62 1.23 L15.72 1.19 L16.81 1.12 L17.91 1.04 L19.01 0.94 L20.11 0.81 L21.20 0.67 L22.30 0.50 L23.40 0.31 L23.40 -1.01 L22.30 -1.20 L21.20 -1.37 L20.11 -1.51 L19.01 -1.64 L17.91 -1.74 L16.81 -1.82 L15.72 -1.89 L14.62 -1.93 L13.52 -1.95 L12.42 -1.95 L11.32 -1.93 L10.23 -1.88 L9.13 -1.82 L8.03 -1.74 L6.93 -1.63 L5.84 -1.51 L4.74 -1.36 L3.64 -1.19 Z" transform="rotate(270.0) translate(7.0 0)"/>
<path d="M0.00 0.00 L1.44 0.86 L2.89 1.43 L4.33 1.90 L5.78 2.30 L7.22 2.62 L8.67 2.87 L10.11 3.05 L11.56 3.16 L13.00 3.20 L14.44 3.16 L15.89 3.05 L17.33 2.87 L18.78 2.62 L20.22 2.30 L21.67 1.90 L23.11 1.43 L24.56 0.86 L26.00 0.00 L26.00 -0.00 L24.56 -0.86 L23.11 -1.43 L21.67 -1.90 L20.22 -2.30 L18.78 -2.62 L17.33 -2.87 L15.89 -3.05 L14.44 -3.16 L13.00 -3.20 L11.56 -3.16 L10.11 -3.05 L8.67 -2.87 L7.22 -2.62 L5.78 -2.30 L4.33 -1.90 L2.89 -1.43 L1.44 -0.86 L0.00 -0.00 Z M3.64 0.49 L4.74 0.66 L5.84 0.81 L6.93 0.93 L8.03 1.04 L9.13 1.12 L10.23 1.18 L11.32 1.23 L12.42 1.25 L13.52 1.25 L14.62 1.23 L15.72 1.19 L16.81 1.12 L17.91 1.04 L19.01 0.94 L20.11 0.81 L21.20 0.67 L22.30 0.50 L23.40 0.31 L23.40 -1.01 L22.30 -1.20 L21.20 -1.37 L20.11 -1.51 L19.01 -1.64 L17.91 -1.74 L16.81 -1.82 L15.72 -1.89 L14.62 -1.93 L13.52 -1.95 L12.42 -1.95 L11.32 -1.93 L10.23 -1.88 L9.13 -1.82 L8.03 -1.74 L6.93 -1.63 L5.84 -1.51 L4.74 -1.36 L3.64 -1.19 Z" transform="rotate(300.0) translate(7.0 0)"/>
<path d="M0.00 0.00 L1.44 0.86 L2.89 1.43 L4.33 1.90 L5.78 2.30 L7.22 2.62 L8.67 2.87 L10.11 3.05 L11.56 3.16 L13.00 3.20 L14.44 3.16 L15.89 3.05 L17.33 2.87 L18.78 2.62 L20.22 2.30 L21.67 1.90 L23.11 1.43 L24.56 0.86 L26.00 0.00 L26.00 -0.00 L24.56 -0.86 L23.11 -1.43 L21.67 -1.90 L20.22 -2.30 L18.78 -2.62 L17.33 -2.87 L15.89 -3.05 L14.44 -3.16 L13.00 -3.20 L11.56 -3.16 L10.11 -3.05 L8.67 -2.87 L7.22 -2.62 L5.78 -2.30 L4.33 -1.90 L2.89 -1.43 L1.44 -0.86 L0.00 -0.00 Z M3.64 0.49 L4.74 0.66 L5.84 0.81 L6.93 0.93 L8.03 1.04 L9.13 1.12 L10.23 1.18 L11.32 1.23 L12.42 1.25 L13.52 1.25 L14.62 1.23 L15.72 1.19 L16.81 1.12 L17.91 1.04 L19.01 0.94 L20.11 0.81 L21.20 0.67 L22.30 0.50 L23.40 0.31 L23.40 -1.01 L22.30 -1.20 L21.20 -1.37 L20.11 -1.51 L19.01 -1.64 L17.91 -1.74 L16.81 -1.82 L15.72 -1.89 L14.62 -1.93 L13.52 -1.95 L12.42 -1.95 L11.32 -1.93 L10.23 -1.88 L9.13 -1.82 L8.03 -1.74 L6.93 -1.63 L5.84 -1.51 L4.74 -1.36 L3.64 -1.19 Z" transform="rotate(330.0) translate(7.0 0)"/>
<path d="M5.4 0 A5.4 5.4 0 1 0 -5.4 0 A5.4 5.4 0 1 0 5.4 0 Z M3.2 0 A3.2 3.2 0 1 1 -3.2 0 A3.2 3.2 0 1 1 3.2 0 Z"/>
</svg>
